<?xml version="1.0" encoding="utf-8"?>
<!-- Generator: Adobe Illustrator 24.3.0, SVG Export Plug-In . SVG Version: 6.00 Build 0)  -->
<svg version="1.1" id="Layer_1" xmlns="http://www.w3.org/2000/svg" xmlns:xlink="http://www.w3.org/1999/xlink" x="0px" y="0px"
	 viewBox="0 0 640 640" style="enable-background:new 0 0 640 640;" xml:space="preserve">
<style type="text/css">
	.st0{fill:url(#SVGID_1_);}
</style>
<linearGradient id="SVGID_1_" gradientUnits="userSpaceOnUse" x1="189.8596" y1="552.1009" x2="453.4711" y2="81.9485">
	<stop  offset="0.0884" style="stop-color:#2D54A5"/>
	<stop  offset="0.2368" style="stop-color:#285DAC"/>
	<stop  offset="0.4743" style="stop-color:#1B74BD"/>
	<stop  offset="0.7695" style="stop-color:#079ADB"/>
	<stop  offset="0.8547" style="stop-color:#00A6E4"/>
</linearGradient>
<path class="st0" d="M576.7,149.72L339.11,12.55c-10.51-6.07-27.71-6.07-38.22,0L63.3,149.72c-10.51,6.07-19.11,20.96-19.11,33.1
	v274.35c0,12.14,8.6,27.03,19.11,33.1l237.59,137.18c10.51,6.07,27.71,6.07,38.22,0L576.7,490.27c10.51-6.07,19.11-20.96,19.11-33.1
	V182.82C595.81,170.69,587.21,155.79,576.7,149.72z M88.32,431.7V208.29c0-12.14,8.6-27.03,19.11-33.1L300.89,63.51
	c10.51-6.07,27.71-6.07,38.22,0l63.02,36.38c-4.74,7.19-10.59,16.11-16.97,25.9C333.89,204.4,273.54,297.68,251.6,332.15
	c-5.51,8.66-3.71,13.96,4.61,14.02c4.28,0.03,9.56,0.05,15.72,0.05c15.61,0,15.61,0,15.61,0c7.19,0.15,8.68,8.68,3.32,18.96
	c0,0-7.01,13.42-27.85,52.33c-29.85,55.54-46.94,87.61-56.04,104.76l-99.56-57.48C96.92,458.73,88.32,443.83,88.32,431.7z
	 M551.68,431.7c0,12.14-8.6,27.03-19.11,33.1L339.11,576.49c-10.51,6.07-27.71,6.07-38.22,0l-85.99-49.65
	c35.2-41.88,97.81-116.47,97.81-116.47c7.45-8.88,19.7-23.38,27.21-32.21l57.63-67.82c7.51-8.84,4.16-16.07-7.43-16.07h-39.38
	c-11.6,0-17.58-8.82-13.31-19.6c0,0,1.24-3.14,5.96-15.09c14.38-35.98,30.61-76.72,56.99-143.01c2.04-5.18,3.95-10.03,5.66-14.42
	l126.52,73.04c10.51,6.07,19.11,20.96,19.11,33.1V431.7z"/>
</svg>
