<?xml version="1.0" encoding="utf-8"?>
<!-- Generator: Adobe Illustrator 24.3.0, SVG Export Plug-In . SVG Version: 6.00 Build 0)  -->
<svg version="1.1" id="Layer_1" xmlns="http://www.w3.org/2000/svg" xmlns:xlink="http://www.w3.org/1999/xlink" x="0px" y="0px"
	 viewBox="0 0 640 640" style="enable-background:new 0 0 640 640;" xml:space="preserve">
<style type="text/css">
	.st0{fill:url(#SVGID_1_);}
</style>
<linearGradient id="SVGID_1_" gradientUnits="userSpaceOnUse" x1="319.8263" y1="11.7637" x2="319.8263" y2="627.8616">
	<stop  offset="0.0919" style="stop-color:#61CDF6"/>
	<stop  offset="0.224" style="stop-color:#58D1F7"/>
	<stop  offset="0.4353" style="stop-color:#41DDF9"/>
	<stop  offset="0.698" style="stop-color:#1BF1FC"/>
	<stop  offset="0.8624" style="stop-color:#00FFFF"/>
</linearGradient>
<path class="st0" d="M573.28,151.69L338.69,16.26c-10.38-5.99-27.36-5.99-37.73,0L66.37,151.69c-10.38,5.99-18.87,20.7-18.87,32.68
	v270.87c0,11.98,8.49,26.69,18.87,32.68l234.59,135.45c10.38,5.99,27.36,5.99,37.73,0l234.59-135.45
	c10.38-5.99,18.87-20.7,18.87-32.68V184.37C592.15,172.39,583.66,157.68,573.28,151.69z M91.08,430.1V209.52
	c0-11.98,8.49-26.69,18.87-32.68L300.96,66.57c10.38-5.99,27.36-5.99,37.73,0l69.52,40.13c-1.58,2.41-3.17,4.86-4.82,7.39
	c-55.72,85.44-121.83,187.65-141.2,218.27c-3.67,5.81-1.93,9.34,4.43,9.41c4.93,0.06,11.59,0.09,19.78,0.09
	c16.13,0,18.75,0.06,18.75,0.06c5.99,0.12,8.62,4.57,5.85,9.88c0,0-12.28,23.52-33.82,63.72c-28.74,53.48-47.53,88.76-58.72,109.9
	l-108.51-62.65C99.57,456.78,91.08,442.08,91.08,430.1z M548.57,430.1c0,11.98-8.49,26.69-18.87,32.68L338.69,573.05
	c-10.38,5.99-27.36,5.99-37.73,0l-74.7-43.13c37.49-44.59,109.28-130.12,109.28-130.12c3.85-4.59,10.18-12.08,14.06-16.64
	l73.65-86.68c3.88-4.57,2.15-8.3-3.84-8.3h-62.48c-5.99,0-9.09-4.56-6.88-10.12c0,0,5.3-13.37,10.18-25.72
	c14.35-35.9,30.52-76.47,56.16-140.91l113.31,65.41c10.38,5.99,18.87,20.7,18.87,32.68V430.1z"/>
</svg>
